<svg xmlns="http://www.w3.org/2000/svg" width="114" height="114" fill="none" viewBox="0 0 114 114"><path stroke="#272727" stroke-miterlimit="10" d="M51.326 108.653V67.592M39.905 107.366l9.137-40.032M29.058 103.571l17.815-36.995M19.324 97.456l25.601-32.103M11.198 89.328 43.3 63.727M5.083 79.596 42.078 61.78M1.287 68.747l40.032-9.137M0 57.327H41.06M1.287 45.906l40.032 9.137M5.083 35.057l36.995 17.816M11.198 25.325l32.103 25.601M19.325 17.198l25.601 32.103M29.056 11.083l17.816 36.995M39.905 7.287l9.137 40.031M51.327 6v41.061M62.748 7.287 53.61 47.318M73.596 11.082 55.78 48.078M83.329 17.198 57.727 49.3M91.455 25.325 59.352 50.926M97.57 35.057 60.577 52.873M101.366 45.905l-40.032 9.137M102.653 57.327H61.592M101.367 68.748 61.335 59.61M97.57 79.596 60.575 61.78M91.455 89.328l-32.103-25.6M83.327 97.455 57.726 65.352M73.597 103.571 55.781 66.576M62.749 107.366l-9.137-40.032"/></svg>