<svg fill="none" height="115" viewBox="0 0 115 115" width="115" xmlns="http://www.w3.org/2000/svg"><g stroke="#fff" stroke-miterlimit="10"><path d="m102.347 78.237v-41.9c0-5.14-2.742-9.89-7.194-12.46l-36.286-20.95a14.387 14.387 0 0 0 -14.387 0l-36.286 20.951a14.388 14.388 0 0 0 -7.194 12.459v41.9c0 5.14 2.742 9.89 7.194 12.46l36.286 20.949a14.388 14.388 0 0 0 14.387 0l36.286-20.95a14.388 14.388 0 0 0 7.194-12.46z"/><path d="m11.86 32.084c-3.562 2.056-5.756 6.588-5.756 10.7v35.552c0 4.112 2.194 8.64 5.755 10.696l31.256 18.046c3.561 2.056 8.747 2.517 12.308.461l32.054-18.507c3.56-2.056 5.755-6.588 5.755-10.7v-35.552c0-4.112-2.194-8.64-5.755-10.696l-32.054-18.506c-3.561-2.056-8.747-1.595-12.308.46l-31.255 18.047z"/><path d="m15.525 40.291c-2.67 1.543-4.316 5.857-4.316 8.941v29.204c0 3.085 1.645 7.39 4.316 8.933l26.226 15.141c2.67 1.542 7.557 2.463 10.228.921l27.821-16.063c2.671-1.541 4.316-5.856 4.316-8.94v-29.205c0-3.084-1.645-7.39-4.316-8.932l-27.82-16.061c-2.671-1.542-7.557-.621-10.228.921z"/><path d="m19.19 48.499c-1.78 1.028-2.877 5.124-2.877 7.18v22.858c0 2.056 1.097 6.14 2.878 7.168l21.195 12.237c1.78 1.028 6.368 2.41 8.149 1.382l23.589-13.62c1.78-1.026 2.876-5.124 2.876-7.179v-22.858c0-2.056-1.097-6.14-2.877-7.169l-23.589-13.618c-1.78-1.029-6.367.353-8.148 1.381l-21.195 12.239z"/><path d="m22.856 56.706c-.89.514-1.439 4.393-1.439 5.421v16.51c0 1.028.549 4.89 1.44 5.404l16.165 9.333c.89.514 5.178 2.356 6.068 1.842l19.357-11.175c.89-.514 1.439-4.394 1.439-5.422v-16.509c0-1.027-.548-4.89-1.439-5.404l-19.357-11.176c-.89-.514-5.178 1.328-6.068 1.843z"/><path d="m41.646 91.109 15.125-8.732v-17.464l-15.125-8.733-15.124 8.732v17.464l15.124 8.732z"/></g></svg>