<svg xmlns="http://www.w3.org/2000/svg" width="115" height="114" fill="none" viewBox="0 0 115 114"><path stroke="#272727" stroke-miterlimit="10" d="m1 47.221 51.761-20.61M1 47.221l51.761 20.61M52.761 109.053 1 47.221M103.396 47.221l-50.635-20.61M52.761 67.832l50.635-20.61M52.761 109.053l50.635-61.832M1 88.442l51.761 20.611M1 88.443l51.761-20.611M52.761 26.61 1 88.444M103.396 88.442l-50.635 20.611M52.761 67.832l50.635 20.61M52.761 26.61l50.635 61.833M1 26.61 52.761 6M1 26.61l51.761 20.611M52.761 88.443 1 26.61M103.396 26.61 52.761 6M52.761 47.221l50.635-20.61M52.761 88.443l50.635-61.832M1 67.832l51.761 20.61M1 67.832l51.761-20.61M52.761 6 1 67.832M103.396 67.832l-50.635 20.61M52.761 47.221l50.635 20.61M52.761 6l50.635 61.832"/></svg>